<svg xmlns="http://www.w3.org/2000/svg" xmlns:xlink="http://www.w3.org/1999/xlink" xmlns:lucid="lucid" width="1601" height="1196.46"><g transform="translate(-20 -20)" lucid:page-tab-id="0_0"><path d="M330 288h80v60h-80z" fill="none"/><use xlink:href="#a" transform="matrix(1,0,0,1,329.9999999999997,288) translate(21.882716049382715 34.44444444444444)"/><path d="M240 256.5c0-3.3 2.7-6 6-6h168c3.3 0 6 2.7 6 6v38c0 3.3-2.7 6-6 6H246c-3.3 0-6-2.7-6-6z" stroke="#5e5e5e" stroke-width="3" fill="#00eae4"/><use xlink:href="#b" transform="matrix(1,0,0,1,252,262.5) translate(5.253086419753089 17.77777777777778)"/><use xlink:href="#c" transform="matrix(1,0,0,1,252,262.5) translate(57.04320987654321 17.77777777777778)"/><path d="M387 1116.46c21 0 38 17.9 38 40s-17 40-38 40H273c-21 0-38-17.9-38-40s17-40 38-40z" stroke="#5e5e5e" stroke-width="3" fill="#00eae4"/><use xlink:href="#d" transform="matrix(1,0,0,1,240.0000000000001,1121.4583333333333) translate(9.202530864197522 26.52777777777778)"/><use xlink:href="#e" transform="matrix(1,0,0,1,240.0000000000001,1121.4583333333333) translate(107.90623456790122 26.52777777777778)"/><use xlink:href="#f" transform="matrix(1,0,0,1,240.0000000000001,1121.4583333333333) translate(52.96796296296296 53.19444444444445)"/><path d="M330 380h80v60h-80z" fill="none"/><use xlink:href="#a" transform="matrix(1,0,0,1,330.00000000000017,380) translate(21.882716049382715 34.44444444444444)"/><path d="M330 484.5h80v60h-80z" fill="none"/><use xlink:href="#a" transform="matrix(1,0,0,1,329.9999999999997,484.5) translate(21.882716049382715 34.44444444444444)"/><path d="M330 581.5h80v60h-80z" fill="none"/><use xlink:href="#a" transform="matrix(1,0,0,1,330.00000000000017,581.5) translate(21.882716049382715 34.44444444444444)"/><path d="M330 687h80v60h-80z" fill="none"/><use xlink:href="#a" transform="matrix(1,0,0,1,330.00000000000017,687) translate(21.882716049382715 34.44444444444444)"/><path d="M330 122.5v18" stroke="#5e5e5e" stroke-width="2" fill="none"/><path d="M331 122.53h-2v-1.03h2z" fill="#5e5e5e"/><path d="M330 155.76l-4.64-14.26h9.28z" stroke="#5e5e5e" stroke-width="2" fill="#5e5e5e"/><path d="M330 213v17.5" stroke="#5e5e5e" stroke-width="2" fill="none"/><path d="M331 213.03h-2V212h2z" fill="#5e5e5e"/><path d="M330 245.76l-4.64-14.26h9.28z" stroke="#5e5e5e" stroke-width="2" fill="#5e5e5e"/><path d="M330 390.5V421" stroke="#5e5e5e" stroke-width="2" fill="none"/><path d="M331 390.53h-2v-1.03h2z" fill="#5e5e5e"/><path d="M330 436.26L325.36 422h9.28z" stroke="#5e5e5e" stroke-width="2" fill="#5e5e5e"/><path d="M330 303v15" stroke="#5e5e5e" stroke-width="2" fill="none"/><path d="M331 303.03h-2V302h2z" fill="#5e5e5e"/><path d="M330 333.26L325.36 319h9.28z" stroke="#5e5e5e" stroke-width="2" fill="#5e5e5e"/><path d="M330 493.5v18" stroke="#5e5e5e" stroke-width="2" fill="none"/><path d="M331 493.53h-2v-1.03h2z" fill="#5e5e5e"/><path d="M330 526.76l-4.64-14.26h9.28z" stroke="#5e5e5e" stroke-width="2" fill="#5e5e5e"/><path d="M410 228h80v60h-80z" fill="none"/><use xlink:href="#g" transform="matrix(1,0,0,1,409.9999999999996,228) translate(25.833333333333336 34.44444444444444)"/><path d="M140 311.5h80v60h-80z" fill="none"/><use xlink:href="#g" transform="matrix(1,0,0,1,140.00000000000017,311.5) translate(25.833333333333336 34.44444444444444)"/><path d="M410 421.5h80v60h-80z" fill="none"/><use xlink:href="#g" transform="matrix(1,0,0,1,410.00000000000006,421.5) translate(25.833333333333336 34.44444444444444)"/><path d="M220 166.5c0-3.3 2.7-6 6-6h208c3.3 0 6 2.7 6 6v38c0 3.3-2.7 6-6 6H226c-3.3 0-6-2.7-6-6z" stroke="#5e5e5e" stroke-width="3" fill="#ffce00"/><use xlink:href="#h" transform="matrix(1,0,0,1,232,172.5) translate(7.290123456790127 17.77777777777778)"/><use xlink:href="#i" transform="matrix(1,0,0,1,232,172.5) translate(31.981481481481485 17.77777777777778)"/><use xlink:href="#j" transform="matrix(1,0,0,1,232,172.5) translate(130.68518518518516 17.77777777777778)"/><path d="M168 1126.83c17.67 0 32 13.27 32 29.63s-14.33 29.62-32 29.62H72c-17.67 0-32-13.26-32-29.62s14.33-29.63 32-29.63z" stroke="#5e5e5e" stroke-width="3" fill="#ff5000"/><use xlink:href="#k" transform="matrix(1,0,0,1,45,1131.8333333333333) translate(9.043209876543202 30.27777777777778)"/><path d="M378 40c17.67 0 32 17.9 32 40s-14.33 40-32 40h-96c-17.67 0-32-17.9-32-40s14.33-40 32-40z" stroke="#5e5e5e" stroke-width="3" fill="#00eae4"/><use xlink:href="#l" transform="matrix(1,0,0,1,254.9999999999996,45) translate(19.480308641975306 26.52777777777778)"/><use xlink:href="#e" transform="matrix(1,0,0,1,254.9999999999996,45) translate(67.62845679012345 26.52777777777778)"/><use xlink:href="#f" transform="matrix(1,0,0,1,254.9999999999996,45) translate(37.96796296296296 53.19444444444445)"/><path d="M220 344c0-3.3 2.7-6 6-6h208c3.3 0 6 2.7 6 6v38c0 3.3-2.7 6-6 6H226c-3.3 0-6-2.7-6-6z" stroke="#5e5e5e" stroke-width="3" fill="#00eae4"/><use xlink:href="#m" transform="matrix(1,0,0,1,232,350) translate(11.734567901234584 17.77777777777778)"/><use xlink:href="#c" transform="matrix(1,0,0,1,232,350) translate(90.56172839506173 17.77777777777778)"/><path d="M240 447c0-3.3 2.7-6 6-6h168c3.3 0 6 2.7 6 6v38c0 3.3-2.7 6-6 6H246c-3.3 0-6-2.7-6-6z" stroke="#5e5e5e" stroke-width="3" fill="#00eae4"/><use xlink:href="#b" transform="matrix(1,0,0,1,252.00000000000006,453) translate(8.308641975308646 17.77777777777778)"/><use xlink:href="#n" transform="matrix(1,0,0,1,252.00000000000006,453) translate(60.098765432098766 17.77777777777778)"/><path d="M220 537.5c0-3.3 2.7-6 6-6h208c3.3 0 6 2.7 6 6v38c0 3.3-2.7 6-6 6H226c-3.3 0-6-2.7-6-6z" stroke="#5e5e5e" stroke-width="3" fill="#00eae4"/><use xlink:href="#o" transform="matrix(1,0,0,1,232.00000000000006,543.5) translate(5.5 17.77777777777778)"/><use xlink:href="#n" transform="matrix(1,0,0,1,232.00000000000006,543.5) translate(102.90740740740739 17.77777777777778)"/><path d="M217.5 363H126c-3.3 0-6 2.7-6 6v737.83" stroke="#5e5e5e" stroke-width="2" fill="none"/><path d="M218.5 364h-1.03v-2h1.03z" fill="#5e5e5e"/><path d="M120 1122.1l-4.64-14.27h9.28z" stroke="#5e5e5e" stroke-width="2" fill="#5e5e5e"/><path d="M220 650.25c0-3.3 2.7-6 6-6h208c3.3 0 6 2.7 6 6v38c0 3.3-2.7 6-6 6H226c-3.3 0-6-2.7-6-6z" stroke="#5e5e5e" stroke-width="3" fill="#00eae4"/><use xlink:href="#b" transform="matrix(1,0,0,1,232.00000000000003,656.2499999999999) translate(7.413580246913568 17.77777777777778)"/><use xlink:href="#p" transform="matrix(1,0,0,1,232.00000000000003,656.2499999999999) translate(59.20370370370369 17.77777777777778)"/><path d="M220 741.5c0-3.3 2.7-6 6-6h208c3.3 0 6 2.7 6 6v38c0 3.3-2.7 6-6 6H226c-3.3 0-6-2.7-6-6z" stroke="#5e5e5e" stroke-width="3" fill="#00eae4"/><use xlink:href="#q" transform="matrix(1,0,0,1,231.99999999999963,747.4999999999998) translate(19.14197530864196 17.77777777777778)"/><use xlink:href="#p" transform="matrix(1,0,0,1,231.99999999999963,747.4999999999998) translate(47.47530864197529 17.77777777777778)"/><path d="M330 584v40.25" stroke="#5e5e5e" stroke-width="2" fill="none"/><path d="M331 584.03h-2V583h2z" fill="#5e5e5e"/><path d="M330 639.5l-4.64-14.25h9.28z" stroke="#5e5e5e" stroke-width="2" fill="#5e5e5e"/><path d="M330 696.75v18.75" stroke="#5e5e5e" stroke-width="2" fill="none"/><path d="M331 696.78h-2v-1.03h2z" fill="#5e5e5e"/><path d="M330 730.76l-4.64-14.26h9.28z" stroke="#5e5e5e" stroke-width="2" fill="#5e5e5e"/><path d="M422.5 275.5H514c3.3 0 6 2.7 6 6v136c0 3.3-2.7 6-6 6H332.5" stroke="#5e5e5e" stroke-width="2" fill="none"/><path d="M422.53 276.5h-1.03v-2h1.03z" fill="#5e5e5e"/><path d="M330.5 436.3l-2.38-14.8 9.16 1.42z" stroke="#5e5e5e" stroke-width="2" fill="#5e5e5e"/><path d="M217.5 556.5H126c-3.3 0-6 2.7-6 6v544.33" stroke="#5e5e5e" stroke-width="2" fill="none"/><path d="M218.5 557.5h-1.03v-2h1.03z" fill="#5e5e5e"/><path d="M120 1122.1l-4.64-14.27h9.28z" stroke="#5e5e5e" stroke-width="2" fill="#5e5e5e"/><path d="M140 494h80v60h-80z" fill="none"/><use xlink:href="#g" transform="matrix(1,0,0,1,139.99999999999974,494) translate(25.833333333333336 34.44444444444444)"/><path d="M422.5 466H514c3.3 0 6 2.7 6 6v146.5c0 3.3-2.7 6-6 6H330.25" stroke="#5e5e5e" stroke-width="2" fill="none"/><path d="M422.53 467h-1.03v-2h1.03z" fill="#5e5e5e"/><path d="M330.04 639.5l-4.43-14.3 9.28.1z" stroke="#5e5e5e" stroke-width="2" fill="#5e5e5e"/><path d="M220 860c0-3.3 2.7-6 6-6h208c3.3 0 6 2.7 6 6v38c0 3.3-2.7 6-6 6H226c-3.3 0-6-2.7-6-6z" stroke="#5e5e5e" stroke-width="3" fill="#00eae4"/><use xlink:href="#b" transform="matrix(1,0,0,1,232.00000000000003,866) translate(3.1234567901234414 17.77777777777778)"/><use xlink:href="#r" transform="matrix(1,0,0,1,232.00000000000003,866) translate(54.91358024691356 17.77777777777778)"/><path d="M220 967c0-3.3 2.7-6 6-6h208c3.3 0 6 2.7 6 6v38c0 3.3-2.7 6-6 6H226c-3.3 0-6-2.7-6-6z" stroke="#5e5e5e" stroke-width="3" fill="#00eae4"/><use xlink:href="#q" transform="matrix(1,0,0,1,232.00000000000014,973.0000000000002) translate(14.851851851851833 17.77777777777778)"/><use xlink:href="#r" transform="matrix(1,0,0,1,232.00000000000014,973.0000000000002) translate(43.18518518518516 17.77777777777778)"/><path d="M330 788v46" stroke="#5e5e5e" stroke-width="2" fill="none"/><path d="M331 788.03h-2V787h2z" fill="#5e5e5e"/><path d="M330 849.26L325.36 835h9.28z" stroke="#5e5e5e" stroke-width="2" fill="#5e5e5e"/><path d="M330 906.5V941" stroke="#5e5e5e" stroke-width="2" fill="none"/><path d="M331 906.53h-2v-1.03h2z" fill="#5e5e5e"/><path d="M330 956.26L325.36 942h9.28z" stroke="#5e5e5e" stroke-width="2" fill="#5e5e5e"/><path d="M442.5 669.25H514c3.3 0 6 2.7 6 6V824c0 3.3-2.7 6-6 6H334c-2.2 0-4 1.8-4 4" stroke="#5e5e5e" stroke-width="2" fill="none"/><path d="M442.53 670.25h-1.03v-2h1.03z" fill="#5e5e5e"/><path d="M330 849.26L325.36 835h9.28z" stroke="#5e5e5e" stroke-width="2" fill="#5e5e5e"/><path d="M440 622h80v60h-80z" fill="none"/><use xlink:href="#g" transform="matrix(1,0,0,1,439.99999999999955,622) translate(25.833333333333336 34.44444444444444)"/><path d="M330 780.5h80v60h-80z" fill="none"/><use xlink:href="#a" transform="matrix(1,0,0,1,329.9999999999997,780.4999999999999) translate(21.882716049382715 34.44444444444444)"/><path d="M217.5 760.5H126c-3.3 0-6 2.7-6 6v340.33" stroke="#5e5e5e" stroke-width="2" fill="none"/><path d="M218.5 761.5h-1.03v-2h1.03z" fill="#5e5e5e"/><path d="M120 1122.1l-4.64-14.27h9.28z" stroke="#5e5e5e" stroke-width="2" fill="#5e5e5e"/><path d="M140 697.5h80v60h-80z" fill="none"/><use xlink:href="#g" transform="matrix(1,0,0,1,140.00000000000026,697.5000000000001) translate(25.833333333333336 34.44444444444444)"/><path d="M217.5 986H126c-3.3 0-6 2.7-6 6v114.83" stroke="#5e5e5e" stroke-width="2" fill="none"/><path d="M218.5 987h-1.03v-2h1.03z" fill="#5e5e5e"/><path d="M120 1122.1l-4.64-14.27h9.28z" stroke="#5e5e5e" stroke-width="2" fill="#5e5e5e"/><path d="M140 933.92h80v60h-80z" fill="none"/><use xlink:href="#g" transform="matrix(1,0,0,1,140.00000000000026,933.9166666666666) translate(25.833333333333336 34.44444444444444)"/><path d="M330 1013.5v82.96" stroke="#5e5e5e" stroke-width="2" fill="none"/><path d="M331 1013.53h-2v-1.03h2z" fill="#5e5e5e"/><path d="M330 1111.72l-4.64-14.26h9.28z" stroke="#5e5e5e" stroke-width="2" fill="#5e5e5e"/><path d="M442.5 879H514c3.3 0 6 2.7 6 6v183.96c0 3.3-2.7 6-6 6H336c-3.3 0-6 2.68-6 6v15.5" stroke="#5e5e5e" stroke-width="2" fill="none"/><path d="M442.53 880h-1.03v-2h1.03z" fill="#5e5e5e"/><path d="M330 1111.72l-4.64-14.26h9.28z" stroke="#5e5e5e" stroke-width="2" fill="#5e5e5e"/><path d="M440 826.75h80v60h-80z" fill="none"/><use xlink:href="#g" transform="matrix(1,0,0,1,439.99999999999955,826.7499999999997) translate(25.833333333333336 34.44444444444444)"/><path d="M330 904h80v60h-80z" fill="none"/><use xlink:href="#a" transform="matrix(1,0,0,1,330.00000000000017,904) translate(21.882716049382715 34.44444444444444)"/><path d="M330 1020h80v60h-80z" fill="none"/><use xlink:href="#a" transform="matrix(1,0,0,1,330.00000000000017,1020) translate(21.882716049382715 34.44444444444444)"/><path d="M967 404.5c21 0 38 17.9 38 40s-17 40-38 40H853c-21 0-38-17.9-38-40s17-40 38-40z" stroke="#5e5e5e" stroke-width="3" fill="#00eae4"/><use xlink:href="#s" transform="matrix(1,0,0,1,820.0000000000001,409.5) translate(27.10376543209876 26.52777777777778)"/><use xlink:href="#e" transform="matrix(1,0,0,1,820.0000000000001,409.5) translate(90.005 26.52777777777778)"/><use xlink:href="#f" transform="matrix(1,0,0,1,820.0000000000001,409.5) translate(52.96796296296296 53.19444444444445)"/><path d="M720 240h80v60h-80z" fill="none"/><use xlink:href="#a" transform="matrix(1,0,0,1,720,240) translate(21.882716049382715 34.44444444444444)"/><path d="M900 328h80v60h-80z" fill="none"/><use xlink:href="#g" transform="matrix(1,0,0,1,900,328) translate(25.833333333333336 34.44444444444444)"/><path d="M800 166.5c0-3.3 2.7-6 6-6h208c3.3 0 6 2.7 6 6v38c0 3.3-2.7 6-6 6H806c-3.3 0-6-2.7-6-6z" stroke="#5e5e5e" stroke-width="3" fill="#ffce00"/><use xlink:href="#t" transform="matrix(1,0,0,1,812,172.5) translate(25.191358024691354 17.77777777777778)"/><use xlink:href="#u" transform="matrix(1,0,0,1,812,172.5) translate(49.88271604938271 17.77777777777778)"/><use xlink:href="#j" transform="matrix(1,0,0,1,812,172.5) translate(112.78395061728395 17.77777777777778)"/><path d="M748 411.88c17.67 0 32 13.26 32 29.62s-14.33 29.63-32 29.63h-96c-17.67 0-32-13.27-32-29.63s14.33-29.63 32-29.63z" stroke="#5e5e5e" stroke-width="3" fill="#ff5000"/><use xlink:href="#k" transform="matrix(1,0,0,1,625,416.875) translate(9.043209876543202 30.27777777777778)"/><path d="M800 276.25c0-3.3 2.7-6 6-6h208c3.3 0 6 2.7 6 6v38c0 3.3-2.7 6-6 6H806c-3.3 0-6-2.7-6-6z" stroke="#5e5e5e" stroke-width="3" fill="#ff5000"/><use xlink:href="#q" transform="matrix(1,0,0,1,812.0000000000001,282.25) translate(18.524691358024683 17.77777777777778)"/><use xlink:href="#v" transform="matrix(1,0,0,1,812.0000000000001,282.25) translate(46.85802469135801 17.77777777777778)"/><path d="M967 40c21 0 38 17.9 38 40s-17 40-38 40H853c-21 0-38-17.9-38-40s17-40 38-40z" stroke="#5e5e5e" stroke-width="3" fill="#00eae4"/><use xlink:href="#d" transform="matrix(1,0,0,1,819.9999999999997,45) translate(9.202530864197522 26.52777777777778)"/><use xlink:href="#e" transform="matrix(1,0,0,1,819.9999999999997,45) translate(107.90623456790122 26.52777777777778)"/><use xlink:href="#f" transform="matrix(1,0,0,1,819.9999999999997,45) translate(52.96796296296296 53.19444444444445)"/><path d="M910 122.5v18" stroke="#5e5e5e" stroke-width="2" fill="none"/><path d="M911 122.53h-2v-1.03h2z" fill="#5e5e5e"/><path d="M910 155.76l-4.64-14.26h9.28z" stroke="#5e5e5e" stroke-width="2" fill="#5e5e5e"/><path d="M910 213v37.25" stroke="#5e5e5e" stroke-width="2" fill="none"/><path d="M911 213.03h-2V212h2z" fill="#5e5e5e"/><path d="M910 265.5l-4.64-14.25h9.28z" stroke="#5e5e5e" stroke-width="2" fill="#5e5e5e"/><path d="M797.5 295.25H706c-3.3 0-6 2.7-6 6v90.62" stroke="#5e5e5e" stroke-width="2" fill="none"/><path d="M798.5 296.25h-1.03v-2h1.03z" fill="#5e5e5e"/><path d="M700 407.14l-4.64-14.27h9.28z" stroke="#5e5e5e" stroke-width="2" fill="#5e5e5e"/><path d="M910 322.75v61.75" stroke="#5e5e5e" stroke-width="2" fill="none"/><path d="M911 322.78h-2v-1.03h2z" fill="#5e5e5e"/><path d="M910 399.76l-4.64-14.26h9.28z" stroke="#5e5e5e" stroke-width="2" fill="#5e5e5e"/><path d="M1410 408.38h80v60h-80z" fill="none"/><use xlink:href="#a" transform="matrix(1,0,0,1,1409.9999999999995,408.375) translate(21.882716049382715 34.44444444444444)"/><path d="M1300 372.25c0-3.3 2.7-6 6-6h208c3.3 0 6 2.7 6 6v38c0 3.3-2.7 6-6 6h-208c-3.3 0-6-2.7-6-6z" stroke="#5e5e5e" stroke-width="3" fill="#00eae4"/><use xlink:href="#b" transform="matrix(1,0,0,1,1312,378.25) translate(1.3024691358024683 17.77777777777778)"/><use xlink:href="#w" transform="matrix(1,0,0,1,1312,378.25) translate(53.09259259259259 17.77777777777778)"/><path d="M1467 607c21 0 38 17.9 38 40s-17 40-38 40h-114c-21 0-38-17.9-38-40s17-40 38-40z" stroke="#5e5e5e" stroke-width="3" fill="#00eae4"/><use xlink:href="#x" transform="matrix(1,0,0,1,1319.9999999999995,612) translate(17.28895061728395 26.52777777777778)"/><use xlink:href="#e" transform="matrix(1,0,0,1,1319.9999999999995,612) translate(99.81981481481482 26.52777777777778)"/><use xlink:href="#f" transform="matrix(1,0,0,1,1319.9999999999995,612) translate(52.96796296296296 53.19444444444445)"/><path d="M1410 513.25h80v60h-80z" fill="none"/><use xlink:href="#a" transform="matrix(1,0,0,1,1409.9999999999995,513.25) translate(21.882716049382715 34.44444444444444)"/><path d="M1410 515.75V587" stroke="#5e5e5e" stroke-width="2" fill="none"/><path d="M1411 515.78h-2v-1.03h2z" fill="#5e5e5e"/><path d="M1410 602.26l-4.64-14.26h9.28z" stroke="#5e5e5e" stroke-width="2" fill="#5e5e5e"/><path d="M1410 418.75v24.5" stroke="#5e5e5e" stroke-width="2" fill="none"/><path d="M1411 418.78h-2v-1.03h2z" fill="#5e5e5e"/><path d="M1410 458.5l-4.64-14.25h9.28z" stroke="#5e5e5e" stroke-width="2" fill="#5e5e5e"/><path d="M1410 311.5h80v60h-80z" fill="none"/><use xlink:href="#g" transform="matrix(1,0,0,1,1409.9999999999995,311.5) translate(25.833333333333336 34.44444444444444)"/><path d="M1220 436.75h80v60h-80z" fill="none"/><use xlink:href="#g" transform="matrix(1,0,0,1,1220,436.75) translate(25.833333333333336 34.44444444444444)"/><path d="M1505 338h80v60h-80z" fill="none"/><use xlink:href="#g" transform="matrix(1,0,0,1,1505,338) translate(25.833333333333336 34.44444444444444)"/><path d="M1300 166.5c0-3.3 2.7-6 6-6h208c3.3 0 6 2.7 6 6v38c0 3.3-2.7 6-6 6h-208c-3.3 0-6-2.7-6-6z" stroke="#5e5e5e" stroke-width="3" fill="#ffce00"/><use xlink:href="#y" transform="matrix(1,0,0,1,1312,172.5) translate(15.376543209876544 17.77777777777778)"/><use xlink:href="#z" transform="matrix(1,0,0,1,1312,172.5) translate(40.0679012345679 17.77777777777778)"/><use xlink:href="#j" transform="matrix(1,0,0,1,1312,172.5) translate(122.59876543209876 17.77777777777778)"/><path d="M1228 622c17.67 0 32 13.26 32 29.63 0 16.36-14.33 29.62-32 29.62h-96c-17.67 0-32-13.26-32-29.63 0-16.36 14.33-29.62 32-29.62z" stroke="#5e5e5e" stroke-width="3" fill="#ff5000"/><use xlink:href="#k" transform="matrix(1,0,0,1,1105,627) translate(9.043209876543202 30.27777777777778)"/><path d="M1300 469.25c0-3.3 2.7-6 6-6h208c3.3 0 6 2.7 6 6v38c0 3.3-2.7 6-6 6h-208c-3.3 0-6-2.7-6-6z" stroke="#5e5e5e" stroke-width="3" fill="#00eae4"/><use xlink:href="#q" transform="matrix(1,0,0,1,1312,475.25) translate(10.53086419753086 17.77777777777778)"/><use xlink:href="#A" transform="matrix(1,0,0,1,1312,475.25) translate(38.86419753086419 17.77777777777778)"/><path d="M1297.5 488.25H1186c-3.3 0-6 2.7-6 6V602" stroke="#5e5e5e" stroke-width="2" fill="none"/><path d="M1298.5 489.25h-1.03v-2h1.03z" fill="#5e5e5e"/><path d="M1180 617.26l-4.64-14.26h9.28z" stroke="#5e5e5e" stroke-width="2" fill="#5e5e5e"/><path d="M1467 40c21 0 38 17.9 38 40s-17 40-38 40h-114c-21 0-38-17.9-38-40s17-40 38-40z" stroke="#5e5e5e" stroke-width="3" fill="#00eae4"/><g><use xlink:href="#s" transform="matrix(1,0,0,1,1320,45) translate(27.10376543209876 26.52777777777778)"/><use xlink:href="#e" transform="matrix(1,0,0,1,1320,45) translate(90.005 26.52777777777778)"/><use xlink:href="#f" transform="matrix(1,0,0,1,1320,45) translate(52.96796296296296 53.19444444444445)"/></g><path d="M1410 122.5v18" stroke="#5e5e5e" stroke-width="2" fill="none"/><path d="M1411 122.53h-2v-1.03h2z" fill="#5e5e5e"/><path d="M1410 155.76l-4.64-14.26h9.28z" stroke="#5e5e5e" stroke-width="2" fill="#5e5e5e"/><path d="M1300 276.25c0-3.3 2.7-6 6-6h208c3.3 0 6 2.7 6 6v38c0 3.3-2.7 6-6 6h-208c-3.3 0-6-2.7-6-6z" stroke="#5e5e5e" stroke-width="3" fill="#ff5000"/><g><use xlink:href="#q" transform="matrix(1,0,0,1,1311.9999999999995,282.25) translate(12.351851851851848 17.77777777777778)"/><use xlink:href="#B" transform="matrix(1,0,0,1,1311.9999999999995,282.25) translate(40.685185185185176 17.77777777777778)"/></g><path d="M1410 213v37.25" stroke="#5e5e5e" stroke-width="2" fill="none"/><path d="M1411 213.03h-2V212h2z" fill="#5e5e5e"/><path d="M1410 265.5l-4.64-14.25h9.28z" stroke="#5e5e5e" stroke-width="2" fill="#5e5e5e"/><path d="M1297.5 295.25H1186c-3.3 0-6 2.7-6 6V602" stroke="#5e5e5e" stroke-width="2" fill="none"/><path d="M1298.5 296.25h-1.03v-2h1.03z" fill="#5e5e5e"/><path d="M1180 617.26l-4.64-14.26h9.28z" stroke="#5e5e5e" stroke-width="2" fill="#5e5e5e"/><path d="M1220 240h80v60h-80z" fill="none"/><g><use xlink:href="#a" transform="matrix(1,0,0,1,1219.9999999999995,240) translate(21.882716049382715 34.44444444444444)"/></g><path d="M1410 322.75v23.5" stroke="#5e5e5e" stroke-width="2" fill="none"/><path d="M1411 322.78h-2v-1.03h2z" fill="#5e5e5e"/><path d="M1410 361.5l-4.64-14.25h9.28z" stroke="#5e5e5e" stroke-width="2" fill="#5e5e5e"/><path d="M1522.5 391.25h81.5c3.3 0 6 2.7 6 6V559.5c0 3.3-2.7 6-6 6h-188c-3.3 0-6 2.7-6 6V587" stroke="#5e5e5e" stroke-width="2" fill="none"/><path d="M1522.53 392.25h-1.03v-2h1.03z" fill="#5e5e5e"/><path d="M1410 602.26l-4.64-14.26h9.28z" stroke="#5e5e5e" stroke-width="2" fill="#5e5e5e"/><path d="M1467 747c21 0 38 17.9 38 40s-17 40-38 40h-114c-21 0-38-17.9-38-40s17-40 38-40z" stroke="#5e5e5e" stroke-width="3" fill="#08088c"/><g><use xlink:href="#C" transform="matrix(1,0,0,1,1320,752) translate(44.974135802469135 26.52777777777778)"/><use xlink:href="#D" transform="matrix(1,0,0,1,1320,752) translate(38.21487654320987 53.19444444444445)"/></g><path d="M1410 689.5V727" stroke="#5e5e5e" stroke-width="2" fill="none"/><path d="M1411 689.53h-2v-1.03h2z" fill="#5e5e5e"/><path d="M1410 742.26l-4.64-14.26h9.28z" stroke="#5e5e5e" stroke-width="2" fill="#5e5e5e"/><defs><path fill="#333" d="M137-103V0h-34v-103L8-248h37l75 118 75-118h37" id="E"/><path fill="#333" d="M100-194c63 0 86 42 84 106H49c0 40 14 67 53 68 26 1 43-12 49-29l28 8c-11 28-37 45-77 45C44 4 14-33 15-96c1-61 26-98 85-98zm52 81c6-60-76-77-97-28-3 7-6 17-6 28h103" id="F"/><path fill="#333" d="M135-143c-3-34-86-38-87 0 15 53 115 12 119 90S17 21 10-45l28-5c4 36 97 45 98 0-10-56-113-15-118-90-4-57 82-63 122-42 12 7 21 19 24 35" id="G"/><g id="a"><use transform="matrix(0.06172839506172839,0,0,0.06172839506172839,0,0)" xlink:href="#E"/><use transform="matrix(0.06172839506172839,0,0,0.06172839506172839,12.777777777777777,0)" xlink:href="#F"/><use transform="matrix(0.06172839506172839,0,0,0.06172839506172839,25.123456790123456,0)" xlink:href="#G"/></g><path d="M197 0v-115H63V0H30v-248h33v105h134v-105h34V0h-34" id="H"/><path d="M205 0l-28-72H64L36 0H1l101-248h38L239 0h-34zm-38-99l-47-123c-12 45-31 82-46 123h93" id="I"/><path d="M185-189c-5-48-123-54-124 2 14 75 158 14 163 119 3 78-121 87-175 55-17-10-28-26-33-46l33-7c5 56 141 63 141-1 0-78-155-14-162-118-5-82 145-84 179-34 5 7 8 16 11 25" id="J"/><g id="b"><use transform="matrix(0.06172839506172839,0,0,0.06172839506172839,0,0)" xlink:href="#H"/><use transform="matrix(0.06172839506172839,0,0,0.06172839506172839,15.987654320987653,0)" xlink:href="#I"/><use transform="matrix(0.06172839506172839,0,0,0.06172839506172839,30.80246913580247,0)" xlink:href="#J"/></g><path d="M135-143c-3-34-86-38-87 0 15 53 115 12 119 90S17 21 10-45l28-5c4 36 97 45 98 0-10-56-113-15-118-90-4-57 82-63 122-42 12 7 21 19 24 35" id="K"/><path d="M59-47c-2 24 18 29 38 22v24C64 9 27 4 27-40v-127H5v-23h24l9-43h21v43h35v23H59v120" id="L"/><path d="M141-36C126-15 110 5 73 4 37 3 15-17 15-53c-1-64 63-63 125-63 3-35-9-54-41-54-24 1-41 7-42 31l-33-3c5-37 33-52 76-52 45 0 72 20 72 64v82c-1 20 7 32 28 27v20c-31 9-61-2-59-35zM48-53c0 20 12 33 32 33 41-3 63-29 60-74-43 2-92-5-92 41" id="M"/><path d="M114-163C36-179 61-72 57 0H25l-1-190h30c1 12-1 29 2 39 6-27 23-49 58-41v29" id="N"/><path d="M16-82v-28h88v28H16" id="O"/><path d="M85-194c31 0 48 13 60 33l-1-100h32l1 261h-30c-2-10 0-23-3-31C134-8 116 4 85 4 32 4 16-35 15-94c0-66 23-100 70-100zm9 24c-40 0-46 34-46 75 0 40 6 74 45 74 42 0 51-32 51-76 0-42-9-74-50-73" id="P"/><path d="M100-194c63 0 86 42 84 106H49c0 40 14 67 53 68 26 1 43-12 49-29l28 8c-11 28-37 45-77 45C44 4 14-33 15-96c1-61 26-98 85-98zm52 81c6-60-76-77-97-28-3 7-6 17-6 28h103" id="Q"/><g id="c"><use transform="matrix(0.06172839506172839,0,0,0.06172839506172839,0,0)" xlink:href="#K"/><use transform="matrix(0.06172839506172839,0,0,0.06172839506172839,11.11111111111111,0)" xlink:href="#L"/><use transform="matrix(0.06172839506172839,0,0,0.06172839506172839,17.28395061728395,0)" xlink:href="#M"/><use transform="matrix(0.06172839506172839,0,0,0.06172839506172839,29.629629629629626,0)" xlink:href="#N"/><use transform="matrix(0.06172839506172839,0,0,0.06172839506172839,36.9753086419753,0)" xlink:href="#L"/><use transform="matrix(0.06172839506172839,0,0,0.06172839506172839,43.148148148148145,0)" xlink:href="#O"/><use transform="matrix(0.06172839506172839,0,0,0.06172839506172839,50.49382716049382,0)" xlink:href="#P"/><use transform="matrix(0.06172839506172839,0,0,0.06172839506172839,62.8395061728395,0)" xlink:href="#M"/><use transform="matrix(0.06172839506172839,0,0,0.06172839506172839,75.18518518518518,0)" xlink:href="#L"/><use transform="matrix(0.06172839506172839,0,0,0.06172839506172839,81.35802469135801,0)" xlink:href="#Q"/></g><path d="M96-169c-40 0-48 33-48 73s9 75 48 75c24 0 41-14 43-38l32 2c-6 37-31 61-74 61-59 0-76-41-82-99-10-93 101-131 147-64 4 7 5 14 7 22l-32 3c-4-21-16-35-41-35" id="R"/><path d="M106-169C34-169 62-67 57 0H25v-261h32l-1 103c12-21 28-36 61-36 89 0 53 116 60 194h-32v-121c2-32-8-49-39-48" id="S"/><path d="M84 4C-5 8 30-112 23-190h32v120c0 31 7 50 39 49 72-2 45-101 50-169h31l1 190h-30c-1-10 1-25-2-33-11 22-28 36-60 37" id="T"/><path d="M24 0v-261h32V0H24" id="U"/><g id="d"><use transform="matrix(0.06172839506172839,0,0,0.06172839506172839,0,0)" xlink:href="#J"/><use transform="matrix(0.06172839506172839,0,0,0.06172839506172839,14.814814814814813,0)" xlink:href="#R"/><use transform="matrix(0.06172839506172839,0,0,0.06172839506172839,25.925925925925924,0)" xlink:href="#S"/><use transform="matrix(0.06172839506172839,0,0,0.06172839506172839,38.2716049382716,0)" xlink:href="#Q"/><use transform="matrix(0.06172839506172839,0,0,0.06172839506172839,50.61728395061728,0)" xlink:href="#P"/><use transform="matrix(0.06172839506172839,0,0,0.06172839506172839,62.962962962962955,0)" xlink:href="#T"/><use transform="matrix(0.06172839506172839,0,0,0.06172839506172839,75.30864197530863,0)" xlink:href="#U"/><use transform="matrix(0.06172839506172839,0,0,0.06172839506172839,80.18518518518518,0)" xlink:href="#Q"/></g><path d="M212-179c-10-28-35-45-73-45-59 0-87 40-87 99 0 60 29 101 89 101 43 0 62-24 78-52l27 14C228-24 195 4 139 4 59 4 22-46 18-125c-6-104 99-153 187-111 19 9 31 26 39 46" id="V"/><path d="M143 0L79-87 56-68V0H24v-261h32v163l83-92h37l-77 82L181 0h-38" id="W"/><g id="e"><use transform="matrix(0.06172839506172839,0,0,0.06172839506172839,0,0)" xlink:href="#V"/><use transform="matrix(0.06172839506172839,0,0,0.06172839506172839,15.987654320987653,0)" xlink:href="#S"/><use transform="matrix(0.06172839506172839,0,0,0.06172839506172839,28.333333333333332,0)" xlink:href="#Q"/><use transform="matrix(0.06172839506172839,0,0,0.06172839506172839,40.67901234567901,0)" xlink:href="#R"/><use transform="matrix(0.06172839506172839,0,0,0.06172839506172839,51.79012345679013,0)" xlink:href="#W"/></g><path d="M30-248c87 1 191-15 191 75 0 78-77 80-158 76V0H30v-248zm33 125c57 0 124 11 124-50 0-59-68-47-124-48v98" id="X"/><g id="f"><use transform="matrix(0.06172839506172839,0,0,0.06172839506172839,0,0)" xlink:href="#X"/><use transform="matrix(0.06172839506172839,0,0,0.06172839506172839,14.814814814814813,0)" xlink:href="#M"/><use transform="matrix(0.06172839506172839,0,0,0.06172839506172839,27.160493827160494,0)" xlink:href="#K"/><use transform="matrix(0.06172839506172839,0,0,0.06172839506172839,38.27160493827161,0)" xlink:href="#K"/><use transform="matrix(0.06172839506172839,0,0,0.06172839506172839,49.38271604938272,0)" xlink:href="#Q"/><use transform="matrix(0.06172839506172839,0,0,0.06172839506172839,61.7283950617284,0)" xlink:href="#P"/></g><path fill="#333" d="M190 0L58-211 59 0H30v-248h39L202-35l-2-213h31V0h-41" id="Y"/><path fill="#333" d="M100-194c62-1 85 37 85 99 1 63-27 99-86 99S16-35 15-95c0-66 28-99 85-99zM99-20c44 1 53-31 53-75 0-43-8-75-51-75s-53 32-53 75 10 74 51 75" id="Z"/><g id="g"><use transform="matrix(0.06172839506172839,0,0,0.06172839506172839,0,0)" xlink:href="#Y"/><use transform="matrix(0.06172839506172839,0,0,0.06172839506172839,15.987654320987653,0)" xlink:href="#Z"/></g><path d="M27 0v-27h64v-190l-56 39v-29l58-41h29v221h61V0H27" id="aa"/><path d="M33 0v-38h34V0H33" id="ab"/><g id="h"><use transform="matrix(0.06172839506172839,0,0,0.06172839506172839,0,0)" xlink:href="#aa"/><use transform="matrix(0.06172839506172839,0,0,0.06172839506172839,12.345679012345679,0)" xlink:href="#ab"/></g><g id="i"><use transform="matrix(0.06172839506172839,0,0,0.06172839506172839,0,0)" xlink:href="#J"/><use transform="matrix(0.06172839506172839,0,0,0.06172839506172839,14.814814814814813,0)" xlink:href="#R"/><use transform="matrix(0.06172839506172839,0,0,0.06172839506172839,25.925925925925924,0)" xlink:href="#S"/><use transform="matrix(0.06172839506172839,0,0,0.06172839506172839,38.2716049382716,0)" xlink:href="#Q"/><use transform="matrix(0.06172839506172839,0,0,0.06172839506172839,50.61728395061728,0)" xlink:href="#P"/><use transform="matrix(0.06172839506172839,0,0,0.06172839506172839,62.962962962962955,0)" xlink:href="#T"/><use transform="matrix(0.06172839506172839,0,0,0.06172839506172839,75.30864197530863,0)" xlink:href="#U"/><use transform="matrix(0.06172839506172839,0,0,0.06172839506172839,80.18518518518518,0)" xlink:href="#Q"/></g><g id="j"><use transform="matrix(0.06172839506172839,0,0,0.06172839506172839,0,0)" xlink:href="#R"/><use transform="matrix(0.06172839506172839,0,0,0.06172839506172839,11.11111111111111,0)" xlink:href="#S"/><use transform="matrix(0.06172839506172839,0,0,0.06172839506172839,23.45679012345679,0)" xlink:href="#Q"/><use transform="matrix(0.06172839506172839,0,0,0.06172839506172839,35.80246913580247,0)" xlink:href="#R"/><use transform="matrix(0.06172839506172839,0,0,0.06172839506172839,46.91358024691358,0)" xlink:href="#W"/></g><path fill="#fff" d="M232-93c-1 65-40 97-104 97C67 4 28-28 28-90v-158h33c8 89-33 224 67 224 102 0 64-133 71-224h33v155" id="ac"/><path fill="#fff" d="M117-194c89-4 53 116 60 194h-32v-121c0-31-8-49-39-48C34-167 62-67 57 0H25l-1-190h30c1 10-1 24 2 32 11-22 29-35 61-36" id="ad"/><path fill="#fff" d="M141-36C126-15 110 5 73 4 37 3 15-17 15-53c-1-64 63-63 125-63 3-35-9-54-41-54-24 1-41 7-42 31l-33-3c5-37 33-52 76-52 45 0 72 20 72 64v82c-1 20 7 32 28 27v20c-31 9-61-2-59-35zM48-53c0 20 12 33 32 33 41-3 63-29 60-74-43 2-92-5-92 41" id="ae"/><path fill="#fff" d="M84 4C-5 8 30-112 23-190h32v120c0 31 7 50 39 49 72-2 45-101 50-169h31l1 190h-30c-1-10 1-25-2-33-11 22-28 36-60 37" id="af"/><path fill="#fff" d="M59-47c-2 24 18 29 38 22v24C64 9 27 4 27-40v-127H5v-23h24l9-43h21v43h35v23H59v120" id="ag"/><path fill="#fff" d="M106-169C34-169 62-67 57 0H25v-261h32l-1 103c12-21 28-36 61-36 89 0 53 116 60 194h-32v-121c2-32-8-49-39-48" id="ah"/><path fill="#fff" d="M100-194c62-1 85 37 85 99 1 63-27 99-86 99S16-35 15-95c0-66 28-99 85-99zM99-20c44 1 53-31 53-75 0-43-8-75-51-75s-53 32-53 75 10 74 51 75" id="ai"/><path fill="#fff" d="M114-163C36-179 61-72 57 0H25l-1-190h30c1 12-1 29 2 39 6-27 23-49 58-41v29" id="aj"/><path fill="#fff" d="M24-231v-30h32v30H24zM24 0v-190h32V0H24" id="ak"/><path fill="#fff" d="M9 0v-24l116-142H16v-24h144v24L44-24h123V0H9" id="al"/><path fill="#fff" d="M100-194c63 0 86 42 84 106H49c0 40 14 67 53 68 26 1 43-12 49-29l28 8c-11 28-37 45-77 45C44 4 14-33 15-96c1-61 26-98 85-98zm52 81c6-60-76-77-97-28-3 7-6 17-6 28h103" id="am"/><path fill="#fff" d="M85-194c31 0 48 13 60 33l-1-100h32l1 261h-30c-2-10 0-23-3-31C134-8 116 4 85 4 32 4 16-35 15-94c0-66 23-100 70-100zm9 24c-40 0-46 34-46 75 0 40 6 74 45 74 42 0 51-32 51-76 0-42-9-74-50-73" id="an"/><g id="k"><use transform="matrix(0.06172839506172839,0,0,0.06172839506172839,0,0)" xlink:href="#ac"/><use transform="matrix(0.06172839506172839,0,0,0.06172839506172839,15.987654320987653,0)" xlink:href="#ad"/><use transform="matrix(0.06172839506172839,0,0,0.06172839506172839,28.333333333333332,0)" xlink:href="#ae"/><use transform="matrix(0.06172839506172839,0,0,0.06172839506172839,40.67901234567901,0)" xlink:href="#af"/><use transform="matrix(0.06172839506172839,0,0,0.06172839506172839,53.02469135802469,0)" xlink:href="#ag"/><use transform="matrix(0.06172839506172839,0,0,0.06172839506172839,59.19753086419753,0)" xlink:href="#ah"/><use transform="matrix(0.06172839506172839,0,0,0.06172839506172839,71.54320987654322,0)" xlink:href="#ai"/><use transform="matrix(0.06172839506172839,0,0,0.06172839506172839,83.8888888888889,0)" xlink:href="#aj"/><use transform="matrix(0.06172839506172839,0,0,0.06172839506172839,91.23456790123458,0)" xlink:href="#ak"/><use transform="matrix(0.06172839506172839,0,0,0.06172839506172839,96.11111111111113,0)" xlink:href="#al"/><use transform="matrix(0.06172839506172839,0,0,0.06172839506172839,107.22222222222224,0)" xlink:href="#am"/><use transform="matrix(0.06172839506172839,0,0,0.06172839506172839,119.56790123456793,0)" xlink:href="#an"/></g><path d="M143 4C61 4 22-44 18-125c-5-107 100-154 193-111 17 8 29 25 37 43l-32 9c-13-25-37-40-76-40-61 0-88 39-88 99 0 61 29 100 91 101 35 0 62-11 79-27v-45h-74v-28h105v86C228-13 192 4 143 4" id="ao"/><path d="M100-194c62-1 85 37 85 99 1 63-27 99-86 99S16-35 15-95c0-66 28-99 85-99zM99-20c44 1 53-31 53-75 0-43-8-75-51-75s-53 32-53 75 10 74 51 75" id="ap"/><g id="l"><use transform="matrix(0.06172839506172839,0,0,0.06172839506172839,0,0)" xlink:href="#ao"/><use transform="matrix(0.06172839506172839,0,0,0.06172839506172839,17.28395061728395,0)" xlink:href="#Q"/><use transform="matrix(0.06172839506172839,0,0,0.06172839506172839,29.629629629629626,0)" xlink:href="#ap"/></g><path d="M63-220v92h138v28H63V0H30v-248h175v28H63" id="aq"/><path d="M127-220V0H93v-220H8v-28h204v28h-85" id="ar"/><path d="M30 0v-248h187v28H63v79h144v27H63v87h162V0H30" id="as"/><path d="M233-177c-1 41-23 64-60 70L243 0h-38l-65-103H63V0H30v-248c88 3 205-21 203 71zM63-129c60-2 137 13 137-47 0-61-80-42-137-45v92" id="at"/><g id="m"><use transform="matrix(0.06172839506172839,0,0,0.06172839506172839,0,0)" xlink:href="#I"/><use transform="matrix(0.06172839506172839,0,0,0.06172839506172839,14.814814814814813,0)" xlink:href="#aq"/><use transform="matrix(0.06172839506172839,0,0,0.06172839506172839,28.33333333333333,0)" xlink:href="#ar"/><use transform="matrix(0.06172839506172839,0,0,0.06172839506172839,41.85185185185185,0)" xlink:href="#as"/><use transform="matrix(0.06172839506172839,0,0,0.06172839506172839,56.66666666666666,0)" xlink:href="#at"/></g><path d="M117-194c89-4 53 116 60 194h-32v-121c0-31-8-49-39-48C34-167 62-67 57 0H25l-1-190h30c1 10-1 24 2 32 11-22 29-35 61-36" id="au"/><g id="n"><use transform="matrix(0.06172839506172839,0,0,0.06172839506172839,0,0)" xlink:href="#Q"/><use transform="matrix(0.06172839506172839,0,0,0.06172839506172839,12.345679012345679,0)" xlink:href="#au"/><use transform="matrix(0.06172839506172839,0,0,0.06172839506172839,24.691358024691358,0)" xlink:href="#P"/><use transform="matrix(0.06172839506172839,0,0,0.06172839506172839,37.03703703703704,0)" xlink:href="#O"/><use transform="matrix(0.06172839506172839,0,0,0.06172839506172839,44.382716049382715,0)" xlink:href="#P"/><use transform="matrix(0.06172839506172839,0,0,0.06172839506172839,56.72839506172839,0)" xlink:href="#M"/><use transform="matrix(0.06172839506172839,0,0,0.06172839506172839,69.07407407407408,0)" xlink:href="#L"/><use transform="matrix(0.06172839506172839,0,0,0.06172839506172839,75.24691358024691,0)" xlink:href="#Q"/></g><path d="M160-131c35 5 61 23 61 61C221 17 115-2 30 0v-248c76 3 177-17 177 60 0 33-19 50-47 57zm-97-11c50-1 110 9 110-42 0-47-63-36-110-37v79zm0 115c55-2 124 14 124-45 0-56-70-42-124-44v89" id="av"/><path d="M140-251c81 0 123 46 123 126C263-46 219 4 140 4 59 4 17-45 17-125s42-126 123-126zm0 227c63 0 89-41 89-101s-29-99-89-99c-61 0-89 39-89 99S79-25 140-24" id="aw"/><g id="o"><use transform="matrix(0.06172839506172839,0,0,0.06172839506172839,0,0)" xlink:href="#av"/><use transform="matrix(0.06172839506172839,0,0,0.06172839506172839,14.814814814814813,0)" xlink:href="#as"/><use transform="matrix(0.06172839506172839,0,0,0.06172839506172839,29.629629629629626,0)" xlink:href="#aq"/><use transform="matrix(0.06172839506172839,0,0,0.06172839506172839,43.148148148148145,0)" xlink:href="#aw"/><use transform="matrix(0.06172839506172839,0,0,0.06172839506172839,60.432098765432094,0)" xlink:href="#at"/><use transform="matrix(0.06172839506172839,0,0,0.06172839506172839,76.41975308641975,0)" xlink:href="#as"/></g><path d="M206 0h-36l-40-164L89 0H53L-1-190h32L70-26l43-164h34l41 164 42-164h31" id="ax"/><path d="M179-190L93 31C79 59 56 82 12 73V49c39 6 53-20 64-50L1-190h34L92-34l54-156h33" id="ay"/><g id="p"><use transform="matrix(0.06172839506172839,0,0,0.06172839506172839,0,0)" xlink:href="#M"/><use transform="matrix(0.06172839506172839,0,0,0.06172839506172839,12.345679012345679,0)" xlink:href="#U"/><use transform="matrix(0.06172839506172839,0,0,0.06172839506172839,17.22222222222222,0)" xlink:href="#U"/><use transform="matrix(0.06172839506172839,0,0,0.06172839506172839,22.098765432098766,0)" xlink:href="#ap"/><use transform="matrix(0.06172839506172839,0,0,0.06172839506172839,34.44444444444444,0)" xlink:href="#ax"/><use transform="matrix(0.06172839506172839,0,0,0.06172839506172839,50.432098765432094,0)" xlink:href="#Q"/><use transform="matrix(0.06172839506172839,0,0,0.06172839506172839,62.77777777777777,0)" xlink:href="#P"/><use transform="matrix(0.06172839506172839,0,0,0.06172839506172839,75.12345679012346,0)" xlink:href="#O"/><use transform="matrix(0.06172839506172839,0,0,0.06172839506172839,82.46913580246914,0)" xlink:href="#P"/><use transform="matrix(0.06172839506172839,0,0,0.06172839506172839,94.81481481481482,0)" xlink:href="#M"/><use transform="matrix(0.06172839506172839,0,0,0.06172839506172839,107.16049382716051,0)" xlink:href="#ay"/><use transform="matrix(0.06172839506172839,0,0,0.06172839506172839,118.27160493827162,0)" xlink:href="#K"/></g><path d="M33 0v-248h34V0H33" id="az"/><path d="M190 0L58-211 59 0H30v-248h39L202-35l-2-213h31V0h-41" id="aA"/><g id="q"><use transform="matrix(0.06172839506172839,0,0,0.06172839506172839,0,0)" xlink:href="#az"/><use transform="matrix(0.06172839506172839,0,0,0.06172839506172839,6.172839506172839,0)" xlink:href="#aA"/></g><g id="r"><use transform="matrix(0.06172839506172839,0,0,0.06172839506172839,0,0)" xlink:href="#M"/><use transform="matrix(0.06172839506172839,0,0,0.06172839506172839,12.345679012345679,0)" xlink:href="#U"/><use transform="matrix(0.06172839506172839,0,0,0.06172839506172839,17.22222222222222,0)" xlink:href="#U"/><use transform="matrix(0.06172839506172839,0,0,0.06172839506172839,22.098765432098766,0)" xlink:href="#ap"/><use transform="matrix(0.06172839506172839,0,0,0.06172839506172839,34.44444444444444,0)" xlink:href="#ax"/><use transform="matrix(0.06172839506172839,0,0,0.06172839506172839,50.432098765432094,0)" xlink:href="#Q"/><use transform="matrix(0.06172839506172839,0,0,0.06172839506172839,62.77777777777777,0)" xlink:href="#P"/><use transform="matrix(0.06172839506172839,0,0,0.06172839506172839,75.12345679012346,0)" xlink:href="#O"/><use transform="matrix(0.06172839506172839,0,0,0.06172839506172839,82.46913580246914,0)" xlink:href="#S"/><use transform="matrix(0.06172839506172839,0,0,0.06172839506172839,94.81481481481482,0)" xlink:href="#ap"/><use transform="matrix(0.06172839506172839,0,0,0.06172839506172839,107.16049382716051,0)" xlink:href="#T"/><use transform="matrix(0.06172839506172839,0,0,0.06172839506172839,119.50617283950619,0)" xlink:href="#N"/><use transform="matrix(0.06172839506172839,0,0,0.06172839506172839,126.85185185185188,0)" xlink:href="#K"/></g><path d="M141 0L90-78 38 0H4l68-98-65-92h35l48 74 47-74h35l-64 92 68 98h-35" id="aB"/><g id="s"><use transform="matrix(0.06172839506172839,0,0,0.06172839506172839,0,0)" xlink:href="#X"/><use transform="matrix(0.06172839506172839,0,0,0.06172839506172839,14.814814814814813,0)" xlink:href="#N"/><use transform="matrix(0.06172839506172839,0,0,0.06172839506172839,22.160493827160494,0)" xlink:href="#ap"/><use transform="matrix(0.06172839506172839,0,0,0.06172839506172839,34.50617283950617,0)" xlink:href="#aB"/><use transform="matrix(0.06172839506172839,0,0,0.06172839506172839,45.61728395061728,0)" xlink:href="#ay"/></g><path d="M101-251c82-7 93 87 43 132L82-64C71-53 59-42 53-27h129V0H18c2-99 128-94 128-182 0-28-16-43-45-43s-46 15-49 41l-32-3c6-41 34-60 81-64" id="aC"/><g id="t"><use transform="matrix(0.06172839506172839,0,0,0.06172839506172839,0,0)" xlink:href="#aC"/><use transform="matrix(0.06172839506172839,0,0,0.06172839506172839,12.345679012345679,0)" xlink:href="#ab"/></g><g id="u"><use transform="matrix(0.06172839506172839,0,0,0.06172839506172839,0,0)" xlink:href="#X"/><use transform="matrix(0.06172839506172839,0,0,0.06172839506172839,14.814814814814813,0)" xlink:href="#N"/><use transform="matrix(0.06172839506172839,0,0,0.06172839506172839,22.160493827160494,0)" xlink:href="#ap"/><use transform="matrix(0.06172839506172839,0,0,0.06172839506172839,34.50617283950617,0)" xlink:href="#aB"/><use transform="matrix(0.06172839506172839,0,0,0.06172839506172839,45.61728395061728,0)" xlink:href="#ay"/></g><path d="M115-194c53 0 69 39 70 98 0 66-23 100-70 100C84 3 66-7 56-30L54 0H23l1-261h32v101c10-23 28-34 59-34zm-8 174c40 0 45-34 45-75 0-40-5-75-45-74-42 0-51 32-51 76 0 43 10 73 51 73" id="aD"/><path d="M115-194c55 1 70 41 70 98S169 2 115 4C84 4 66-9 55-30l1 105H24l-1-265h31l2 30c10-21 28-34 59-34zm-8 174c40 0 45-34 45-75s-6-73-45-74c-42 0-51 32-51 76 0 43 10 73 51 73" id="aE"/><path d="M24-231v-30h32v30H24zM24 0v-190h32V0H24" id="aF"/><g id="v"><use transform="matrix(0.06172839506172839,0,0,0.06172839506172839,0,0)" xlink:href="#aD"/><use transform="matrix(0.06172839506172839,0,0,0.06172839506172839,12.345679012345679,0)" xlink:href="#U"/><use transform="matrix(0.06172839506172839,0,0,0.06172839506172839,17.22222222222222,0)" xlink:href="#ap"/><use transform="matrix(0.06172839506172839,0,0,0.06172839506172839,29.5679012345679,0)" xlink:href="#R"/><use transform="matrix(0.06172839506172839,0,0,0.06172839506172839,40.67901234567901,0)" xlink:href="#W"/><use transform="matrix(0.06172839506172839,0,0,0.06172839506172839,51.79012345679013,0)" xlink:href="#O"/><use transform="matrix(0.06172839506172839,0,0,0.06172839506172839,59.135802469135804,0)" xlink:href="#aE"/><use transform="matrix(0.06172839506172839,0,0,0.06172839506172839,71.48148148148148,0)" xlink:href="#N"/><use transform="matrix(0.06172839506172839,0,0,0.06172839506172839,78.82716049382717,0)" xlink:href="#ap"/><use transform="matrix(0.06172839506172839,0,0,0.06172839506172839,91.17283950617285,0)" xlink:href="#aB"/><use transform="matrix(0.06172839506172839,0,0,0.06172839506172839,102.28395061728396,0)" xlink:href="#aF"/><use transform="matrix(0.06172839506172839,0,0,0.06172839506172839,107.16049382716051,0)" xlink:href="#Q"/><use transform="matrix(0.06172839506172839,0,0,0.06172839506172839,119.50617283950619,0)" xlink:href="#K"/></g><path d="M210-169c-67 3-38 105-44 169h-31v-121c0-29-5-50-35-48C34-165 62-65 56 0H25l-1-190h30c1 10-1 24 2 32 10-44 99-50 107 0 11-21 27-35 58-36 85-2 47 119 55 194h-31v-121c0-29-5-49-35-48" id="aG"/><g id="w"><use transform="matrix(0.06172839506172839,0,0,0.06172839506172839,0,0)" xlink:href="#M"/><use transform="matrix(0.06172839506172839,0,0,0.06172839506172839,12.345679012345679,0)" xlink:href="#U"/><use transform="matrix(0.06172839506172839,0,0,0.06172839506172839,17.22222222222222,0)" xlink:href="#U"/><use transform="matrix(0.06172839506172839,0,0,0.06172839506172839,22.098765432098766,0)" xlink:href="#ap"/><use transform="matrix(0.06172839506172839,0,0,0.06172839506172839,34.44444444444444,0)" xlink:href="#ax"/><use transform="matrix(0.06172839506172839,0,0,0.06172839506172839,50.432098765432094,0)" xlink:href="#O"/><use transform="matrix(0.06172839506172839,0,0,0.06172839506172839,57.77777777777777,0)" xlink:href="#P"/><use transform="matrix(0.06172839506172839,0,0,0.06172839506172839,70.12345679012346,0)" xlink:href="#ap"/><use transform="matrix(0.06172839506172839,0,0,0.06172839506172839,82.46913580246914,0)" xlink:href="#aG"/><use transform="matrix(0.06172839506172839,0,0,0.06172839506172839,100.92592592592592,0)" xlink:href="#M"/><use transform="matrix(0.06172839506172839,0,0,0.06172839506172839,113.27160493827161,0)" xlink:href="#aF"/><use transform="matrix(0.06172839506172839,0,0,0.06172839506172839,118.14814814814815,0)" xlink:href="#au"/><use transform="matrix(0.06172839506172839,0,0,0.06172839506172839,130.49382716049382,0)" xlink:href="#K"/></g><path d="M30-248c118-7 216 8 213 122C240-48 200 0 122 0H30v-248zM63-27c89 8 146-16 146-99s-60-101-146-95v194" id="aH"/><g id="x"><use transform="matrix(0.06172839506172839,0,0,0.06172839506172839,0,0)" xlink:href="#aH"/><use transform="matrix(0.06172839506172839,0,0,0.06172839506172839,15.987654320987653,0)" xlink:href="#ap"/><use transform="matrix(0.06172839506172839,0,0,0.06172839506172839,28.333333333333332,0)" xlink:href="#aG"/><use transform="matrix(0.06172839506172839,0,0,0.06172839506172839,46.79012345679012,0)" xlink:href="#M"/><use transform="matrix(0.06172839506172839,0,0,0.06172839506172839,59.1358024691358,0)" xlink:href="#aF"/><use transform="matrix(0.06172839506172839,0,0,0.06172839506172839,64.01234567901234,0)" xlink:href="#au"/></g><path d="M126-127c33 6 58 20 58 59 0 88-139 92-164 29-3-8-5-16-6-25l32-3c6 27 21 44 54 44 32 0 52-15 52-46 0-38-36-46-79-43v-28c39 1 72-4 72-42 0-27-17-43-46-43-28 0-47 15-49 41l-32-3c6-42 35-63 81-64 48-1 79 21 79 65 0 36-21 52-52 59" id="aI"/><g id="y"><use transform="matrix(0.06172839506172839,0,0,0.06172839506172839,0,0)" xlink:href="#aI"/><use transform="matrix(0.06172839506172839,0,0,0.06172839506172839,12.345679012345679,0)" xlink:href="#ab"/></g><g id="z"><use transform="matrix(0.06172839506172839,0,0,0.06172839506172839,0,0)" xlink:href="#aH"/><use transform="matrix(0.06172839506172839,0,0,0.06172839506172839,15.987654320987653,0)" xlink:href="#ap"/><use transform="matrix(0.06172839506172839,0,0,0.06172839506172839,28.333333333333332,0)" xlink:href="#aG"/><use transform="matrix(0.06172839506172839,0,0,0.06172839506172839,46.79012345679012,0)" xlink:href="#M"/><use transform="matrix(0.06172839506172839,0,0,0.06172839506172839,59.1358024691358,0)" xlink:href="#aF"/><use transform="matrix(0.06172839506172839,0,0,0.06172839506172839,64.01234567901234,0)" xlink:href="#au"/></g><path d="M-5 72V49h209v23H-5" id="aJ"/><g id="A"><use transform="matrix(0.06172839506172839,0,0,0.06172839506172839,0,0)" xlink:href="#M"/><use transform="matrix(0.06172839506172839,0,0,0.06172839506172839,12.345679012345679,0)" xlink:href="#U"/><use transform="matrix(0.06172839506172839,0,0,0.06172839506172839,17.22222222222222,0)" xlink:href="#U"/><use transform="matrix(0.06172839506172839,0,0,0.06172839506172839,22.098765432098766,0)" xlink:href="#ap"/><use transform="matrix(0.06172839506172839,0,0,0.06172839506172839,34.44444444444444,0)" xlink:href="#ax"/><use transform="matrix(0.06172839506172839,0,0,0.06172839506172839,50.432098765432094,0)" xlink:href="#aJ"/><use transform="matrix(0.06172839506172839,0,0,0.06172839506172839,62.77777777777777,0)" xlink:href="#P"/><use transform="matrix(0.06172839506172839,0,0,0.06172839506172839,75.12345679012346,0)" xlink:href="#ap"/><use transform="matrix(0.06172839506172839,0,0,0.06172839506172839,87.46913580246914,0)" xlink:href="#aG"/><use transform="matrix(0.06172839506172839,0,0,0.06172839506172839,105.92592592592592,0)" xlink:href="#M"/><use transform="matrix(0.06172839506172839,0,0,0.06172839506172839,118.27160493827161,0)" xlink:href="#aF"/><use transform="matrix(0.06172839506172839,0,0,0.06172839506172839,123.14814814814815,0)" xlink:href="#au"/><use transform="matrix(0.06172839506172839,0,0,0.06172839506172839,135.49382716049382,0)" xlink:href="#K"/></g><g id="B"><use transform="matrix(0.06172839506172839,0,0,0.06172839506172839,0,0)" xlink:href="#aD"/><use transform="matrix(0.06172839506172839,0,0,0.06172839506172839,12.345679012345679,0)" xlink:href="#U"/><use transform="matrix(0.06172839506172839,0,0,0.06172839506172839,17.22222222222222,0)" xlink:href="#ap"/><use transform="matrix(0.06172839506172839,0,0,0.06172839506172839,29.5679012345679,0)" xlink:href="#R"/><use transform="matrix(0.06172839506172839,0,0,0.06172839506172839,40.67901234567901,0)" xlink:href="#W"/><use transform="matrix(0.06172839506172839,0,0,0.06172839506172839,51.79012345679013,0)" xlink:href="#O"/><use transform="matrix(0.06172839506172839,0,0,0.06172839506172839,59.135802469135804,0)" xlink:href="#P"/><use transform="matrix(0.06172839506172839,0,0,0.06172839506172839,71.48148148148148,0)" xlink:href="#ap"/><use transform="matrix(0.06172839506172839,0,0,0.06172839506172839,83.82716049382717,0)" xlink:href="#aG"/><use transform="matrix(0.06172839506172839,0,0,0.06172839506172839,102.28395061728395,0)" xlink:href="#M"/><use transform="matrix(0.06172839506172839,0,0,0.06172839506172839,114.62962962962963,0)" xlink:href="#aF"/><use transform="matrix(0.06172839506172839,0,0,0.06172839506172839,119.50617283950618,0)" xlink:href="#au"/><use transform="matrix(0.06172839506172839,0,0,0.06172839506172839,131.85185185185185,0)" xlink:href="#K"/></g><path fill="#fff" d="M30-248c87 1 191-15 191 75 0 78-77 80-158 76V0H30v-248zm33 125c57 0 124 11 124-50 0-59-68-47-124-48v98" id="aK"/><path fill="#fff" d="M24 0v-261h32V0H24" id="aL"/><path fill="#fff" d="M179-190L93 31C79 59 56 82 12 73V49c39 6 53-20 64-50L1-190h34L92-34l54-156h33" id="aM"/><path fill="#fff" d="M115-194c53 0 69 39 70 98 0 66-23 100-70 100C84 3 66-7 56-30L54 0H23l1-261h32v101c10-23 28-34 59-34zm-8 174c40 0 45-34 45-75 0-40-5-75-45-74-42 0-51 32-51 76 0 43 10 73 51 73" id="aN"/><path fill="#fff" d="M96-169c-40 0-48 33-48 73s9 75 48 75c24 0 41-14 43-38l32 2c-6 37-31 61-74 61-59 0-76-41-82-99-10-93 101-131 147-64 4 7 5 14 7 22l-32 3c-4-21-16-35-41-35" id="aO"/><path fill="#fff" d="M143 0L79-87 56-68V0H24v-261h32v163l83-92h37l-77 82L181 0h-38" id="aP"/><g id="C"><use transform="matrix(0.06172839506172839,0,0,0.06172839506172839,0,0)" xlink:href="#aK"/><use transform="matrix(0.06172839506172839,0,0,0.06172839506172839,14.814814814814813,0)" xlink:href="#aL"/><use transform="matrix(0.06172839506172839,0,0,0.06172839506172839,19.691358024691354,0)" xlink:href="#ae"/><use transform="matrix(0.06172839506172839,0,0,0.06172839506172839,32.03703703703703,0)" xlink:href="#aM"/><use transform="matrix(0.06172839506172839,0,0,0.06172839506172839,43.14814814814814,0)" xlink:href="#aN"/><use transform="matrix(0.06172839506172839,0,0,0.06172839506172839,55.493827160493815,0)" xlink:href="#ae"/><use transform="matrix(0.06172839506172839,0,0,0.06172839506172839,67.83950617283949,0)" xlink:href="#aO"/><use transform="matrix(0.06172839506172839,0,0,0.06172839506172839,78.9506172839506,0)" xlink:href="#aP"/></g><g id="D"><use transform="matrix(0.06172839506172839,0,0,0.06172839506172839,0,0)" xlink:href="#ae"/><use transform="matrix(0.06172839506172839,0,0,0.06172839506172839,12.345679012345679,0)" xlink:href="#af"/><use transform="matrix(0.06172839506172839,0,0,0.06172839506172839,24.691358024691358,0)" xlink:href="#ag"/><use transform="matrix(0.06172839506172839,0,0,0.06172839506172839,30.864197530864196,0)" xlink:href="#ah"/><use transform="matrix(0.06172839506172839,0,0,0.06172839506172839,43.20987654320987,0)" xlink:href="#ai"/><use transform="matrix(0.06172839506172839,0,0,0.06172839506172839,55.55555555555555,0)" xlink:href="#aj"/><use transform="matrix(0.06172839506172839,0,0,0.06172839506172839,62.90123456790123,0)" xlink:href="#ak"/><use transform="matrix(0.06172839506172839,0,0,0.06172839506172839,67.77777777777777,0)" xlink:href="#al"/><use transform="matrix(0.06172839506172839,0,0,0.06172839506172839,78.88888888888889,0)" xlink:href="#am"/><use transform="matrix(0.06172839506172839,0,0,0.06172839506172839,91.23456790123457,0)" xlink:href="#an"/></g></defs></g></svg>